<svg data-name="&#x56FE;&#x5C42; 1" xmlns="http://www.w3.org/2000/svg" viewBox="0 0 484.47 317.13">
    <title>T_yun</title>
    <path d="M395.27 57.34c-19.24 144.19-134.4 259.79-294.51 259.79a100.76 100.76 0 0 1 0-201.52h.18a128.37 128.37 0 0 1 240.3-22.7 257.19 257.19 0 0 1-22.46 53.31l-1.15-9.64a93.11 93.11 0 0 0-181.49-15.97c-3.61 11.88-3.72 24.88-3.25 37.18a78.89 78.89 0 0 0-34.86-6.88 65.514 65.514 0 0 0 2.73 131c136.12 0 239.87-95.87 259-224.54h-16.1L385.69 0l27.78 57.34z"
          fill="#006cb6" fill-rule="evenodd"/>
    <path d="M383.34 141.12a92.54 92.54 0 0 1 12.13 7.08v24.71a18.11 18.11 0 0 0 18.06 18h15.76a92.67 92.67 0 0 1-86.35 126.21h-160.3a297.86 297.86 0 0 0 82-35.25h78.31a57.4 57.4 0 0 0 25-109.06 314.41 314.41 0 0 0 15.39-31.69z"
          fill="#ee7c00" fill-rule="evenodd"/>
    <path d="M241.26 95.43h37.49v103.75a242 242 0 0 1-37.49 30.79V95.43zm-101.11 74.14h37.49v90.5a255.06 255.06 0 0 1-37.49 8.5v-99zm50.55-37.07h37.49v105.57a244.68 244.68 0 0 1-37.49 17.59z"
          fill="#5dc1cf" fill-rule="evenodd"/>
    <rect x="404.5" y="131.77" width="50.13" height="50.13" rx="8.57" ry="8.57" fill="#5dc1cf"/>
    <rect x="455.22" y="102.23" width="29.24" height="29.24" rx="5" ry="5" fill="#ee7c00"/>
    <rect x="435.53" y="85.82" width="14.92" height="14.92" rx="2.55" ry="2.55" fill="#006cb6"/>
    <rect x="463.45" y="80.61" width="9.81" height="9.81" rx="1.68" ry="1.68" fill="#006cb6"/>
</svg>