<svg id="yulansvg" xmlns="http://www.w3.org/2000/svg" data-v-056d9bd8="" version="1.0" width="388" height="129" viewBox="0 0 388.000000 129.000000" preserveAspectRatio="xMidYMid meet" color-interpolation-filters="sRGB" class="el-tooltip"><svg width="129" height="129" x="0" y="0"><svg xmlns="http://www.w3.org/2000/svg" viewBox="0 0 788.5 744.6"><g fill-rule="evenodd" clip-rule="evenodd"><path fill="#a5cd39" d="M383.5 97.8l-3-34-3.1 34-31-14.4 28 19.7-28 19.6 31.1-14.3 3 34 3.1-34.1 30.9 14.4-27.9-19.7 27.9-19.6zM470.3 141.1l-2.1-23.4-2.1 23.5-21.4-9.9 19.3 13.6-19.3 13.5 21.5-9.9 2 23.5 2.2-23.5 21.4 9.9-19.3-13.6 19.3-13.5zM641.7 311.1c-49.3 26.3-110.9 67.2-139.5 96.7 47.8-3.7 96.7-3.4 146.3.9-4.6-24.8-12.4-48.5-23-70.6-4.1-8.5 11.6-22.4 16.2-27zM471.2 195.6c20.2 13.4 33.5 36.3 33.5 62.3 0 33.3-21.8 61.5-51.9 71.1 46.5 4.4 100.4-1.3 160.8-13-32.3-54.6-82.5-97.4-142.4-120.4z"></path><path d="M246.3 489.2c-34.3-80.8-41.5-170.6-32-257.3C224 170.5 243 119.5 253.9 80c-26.2 43.3-47.5 97.3-58.4 156.3C99.3 311 61.6 438.7 101.1 553.2c37.8-27.2 77.4-50.7 118.4-70.4 24.4 58 64 114.1 123.5 163.9-34.6-42.9-61-84.1-80.9-123.4 163.1-62.8 332.9-85 526.3-70.6-160.6-57.4-368.1-37.9-542.1 36.5z" fill="#a5cd39"></path><path d="M279.8 191.3c20.9 59.1 53.1 96.2 95.2 117-12.2-13.3-19.6-31-19.6-50.4 0-41.1 33.3-74.5 74.4-74.6-49.6-10.8-101.9-8-150 8zM271.3 48.7L267 0l-4.5 48.8-44.3-20.6 40 28.2-40 28.1 44.5-20.6 4.3 48.7 4.4-48.7 44.4 20.6-40.1-28.3 40.1-28z" fill="#a5cd39"></path><path d="M618.3 493.9c-16.6 60.2-63.1 144-127 163.3-14.3 4.3-14-10.9-3.1-28.6 9.7-15.8 32.5-39.7 42.2-57.3 7.2-13.1 3.4-32.7-12.4-29.2-32.2 7-92.4 130.3-230.9 134.6-57.9 1.8-115.1-21.4-165.5-76.6 78.6 140 259.8 187 396.5 102.2 76.8-47.7 122.9-126.1 132.2-209.5 3.3-30.8-24.2-27.2-32 1.1zM0 661.9c73.9-46.7 149.1-90.9 229.6-125.5l-17-31.8C129 544.8 54.9 598.1 0 661.9z" fill="#084c7f"></path><path d="M568.4 534.1c-14.9 25.2-39.6 83.4-69.2 112.2 36.4-9.4 73.7-65.3 90.2-97 9.7-18.6-3.3-45.1-21-15.2z" fill="#084c7f"></path></g></svg></svg><g class="font1 logoname" transform="translate(134, 25)" fill="#084c7f"> <path transform="translate(-3.024, 41.90024999999999)" d="M17.14-40.70L18.21-41.08L18.21-41.08Q19.03-40.76 19.40-40.67L19.40-40.67L19.40-40.67Q19.78-40.57 20.19-40.23L20.19-40.23L20.19-40.23Q20.60-39.88 21.42-39.19L21.42-39.19L21.42-39.19Q21.61-38.18 21.17-37.36L21.17-37.36L21.17-37.36Q22.24-37.30 23.03-37.33L23.03-37.33L23.03-37.33Q23.81-37.36 24.13-37.45L24.13-37.45L24.13-37.45Q24.44-37.55 24.95-37.55L24.95-37.55L25.45-37.11L25.45-37.11Q26.33-36.60 26.81-36.26L26.81-36.26L26.81-36.26Q27.28-35.91 28.32-35.97L28.32-35.97L28.32-35.97Q29.36-36.04 29.86-35.59L29.86-35.59L29.86-35.59Q30.37-35.15 31.25-34.52L31.25-34.52L31.44-33.58L30.87-32.82L30.87-32.82Q30.43-32.76 30.05-32.48L30.05-32.48L30.05-32.48Q29.67-32.19 29.07-31.91L29.07-31.91L29.07-31.91Q28.48-31.63 28.10-31.31L28.10-31.31L28.10-31.31Q27.72-31.00 27.28-30.81L27.28-30.81L27.03-31.06L27.03-31.06Q24.76-29.93 22.62-28.54L22.62-28.54L22.87-28.92L22.36-28.73L22.36-28.73Q22.36-28.60 22.14-28.35L22.14-28.35L22.14-28.35Q21.92-28.10 21.83-27.03L21.83-27.03L21.83-27.03Q21.73-25.96 21.89-25.58L21.89-25.58L21.89-25.58Q22.05-25.20 22.24-24.63L22.24-24.63L22.24-24.63Q22.68-24.32 23.03-24.10L23.03-24.10L23.03-24.10Q23.37-23.88 24.70-23.97L24.70-23.97L24.70-23.97Q26.02-24.07 27.41-24.07L27.41-24.07L27.41-24.07Q28.79-24.07 29.07-23.81L29.07-23.81L29.07-23.81Q29.36-23.56 29.86-23.37L29.86-23.37L29.86-23.37Q30.05-23.69 30.30-24.03L30.30-24.03L30.30-24.03Q30.55-24.38 32.04-27.78L32.04-27.78L32.04-27.78Q33.52-31.18 34.08-32.85L34.08-32.85L34.08-32.85Q34.65-34.52 34.49-34.87L34.49-34.87L34.49-34.87Q34.34-35.22 34.40-35.41L34.40-35.41L34.40-35.41Q34.46-35.59 34.65-36.16L34.65-36.16L34.65-36.16Q35.03-36.23 35.31-36.26L35.31-36.26L35.31-36.26Q35.59-36.29 36.10-36.10L36.10-36.10L36.10-36.10Q36.60-35.91 37.55-35.28L37.55-35.28L37.55-35.28Q38.49-34.65 38.68-34.59L38.68-34.59L38.68-34.59Q38.93-34.02 39.15-33.67L39.15-33.67L39.15-33.67Q39.38-33.33 38.93-32.07L38.93-32.07L38.93-32.07Q38.49-30.81 38.15-30.05L38.15-30.05L38.15-30.05Q37.80-29.30 37.80-29.04L37.80-29.04L37.80-29.04Q37.80-28.79 37.33-27.41L37.33-27.41L37.33-27.41Q36.85-26.02 36.04-23.00L36.04-23.00L36.04-23.00Q38.74-24.00 40.35-24.57L40.35-24.57L40.35-24.57Q41.96-25.14 43.75-25.36L43.75-25.36L43.75-25.36Q45.55-25.58 46.65-26.08L46.65-26.08L46.65-26.08Q47.75-26.59 48.89-25.96L48.89-25.96L48.89-25.96Q50.02-25.33 52.42-24.32L52.42-24.32L52.42-24.32Q52.86-23.63 53.20-23.37L53.20-23.37L53.20-23.37Q53.55-23.12 53.42-22.30L53.42-22.30L53.42-22.30Q53.30-21.48 52.83-20.79L52.83-20.79L52.83-20.79Q52.35-20.10 52.23-19.50L52.23-19.50L52.23-19.50Q52.10-18.90 51.44-18.33L51.44-18.33L51.44-18.33Q50.78-17.77 50.56-17.42L50.56-17.42L50.56-17.42Q50.34-17.07 49.90-16.51L49.90-16.51L49.77-16.82L49.39-16.32L49.64-16.25L49.33-16.00L49.08-16.07L48.13-15.31L48.38-15.88L47.82-15.75L48.13-16.38L48.13-16.38Q47.56-16.00 47.12-15.69L47.12-15.69L47.31-15.56L46.62-14.99L46.56-14.80L46.30-15.06L44.16-13.42L44.67-13.86L44.79-14.24L44.54-13.99L43.22-13.17L43.03-12.85L43.03-12.85Q42.21-12.22 40.35-10.99L40.35-10.99L40.35-10.99Q38.49-9.77 37.48-9.26L37.48-9.26L37.42-8.25L37.67-8.25L37.67-8.25Q37.80-7.88 37.93-7.56L37.93-7.56L37.93-7.56Q38.05-7.25 38.12-5.73L38.12-5.73L38.12-5.73Q38.18-4.22 38.15-2.71L38.15-2.71L38.15-2.71Q38.12-1.20 37.83-0.35L37.83-0.35L37.83-0.35Q37.55 0.50 37.58 1.10L37.58 1.10L37.58 1.10Q37.61 1.70 37.01 2.46L37.01 2.46L37.01 2.46Q36.41 3.21 35.94 3.65L35.94 3.65L35.94 3.65Q35.47 4.09 34.52 5.36L34.52 5.36L32.89 6.05L33.08 6.17L33.08 6.17Q31.63 6.55 30.90 6.80L30.90 6.80L30.90 6.80Q30.18 7.06 29.33 6.74L29.33 6.74L29.33 6.74Q28.48 6.43 27.69 6.46L27.69 6.46L27.69 6.46Q26.90 6.49 25.39 6.49L25.39 6.49L25.52 6.68L24.95 6.68L24.82 6.49L24.82 6.49Q23.88 6.55 23.44 6.62L23.44 6.62L23.44 6.62Q23.00 6.68 22.90 6.62L22.90 6.62L22.90 6.62Q22.81 6.55 22.62 6.49L22.62 6.49L23.12 6.17L23.44 5.80L23.18 5.17L21.86 4.98L22.18 4.72L21.86 4.35L21.86 4.35Q22.68 4.28 23.22 4.32L23.22 4.32L23.22 4.32Q23.75 4.35 25.01 4.19L25.01 4.19L25.01 4.19Q26.27 4.03 27.00 3.53L27.00 3.53L27.00 3.53Q27.72 3.02 28.85 2.27L28.85 2.27L28.85 2.27Q29.86 1.07 30.46 0.54L30.46 0.54L30.46 0.54Q31.06 0 31.85-1.29L31.85-1.29L31.85-1.29Q32.63-2.58 32.85-3.69L32.85-3.69L32.85-3.69Q33.08-4.79 33.58-7.06L33.58-7.06L33.58-7.06Q32.95-6.55 32.32-6.24L32.32-6.24L32.32-6.24Q33.26-7.18 33.67-7.56L33.67-7.56L33.67-7.56Q34.08-7.94 34.21-8.79L34.21-8.79L34.21-8.79Q34.34-9.64 34.30-10.49L34.30-10.49L34.30-10.49Q34.27-11.34 34.34-13.48L34.34-13.48L34.65-13.36L34.65-13.36Q34.52-13.86 34.78-14.43L34.78-14.43L33.77-13.73L32.76-12.22L32.76-12.22Q31.88-11.47 31.37-11.06L31.37-11.06L31.37-11.06Q30.87-10.65 30.08-10.43L30.08-10.43L30.08-10.43Q29.30-10.21 28.79-10.49L28.79-10.49L28.79-10.49Q28.29-10.77 27.34-11.15L27.34-11.15L27.34-11.15Q26.84-11.84 26.55-12.19L26.55-12.19L26.55-12.19Q26.27-12.54 26.21-13.14L26.21-13.14L26.21-13.14Q26.14-13.73 25.83-14.99L25.83-14.99L25.14-15.31L25.64-15.31L25.64-15.31Q25.20-15.81 24.98-16.03L24.98-16.03L24.98-16.03Q24.76-16.25 24.70-16.51L24.70-16.51L24.70-16.51Q24.63-16.76 24.66-16.88L24.66-16.88L24.66-16.88Q24.70-17.01 24.82-17.32L24.82-17.32L24.82-17.32Q23.50-16.38 22.24-15.69L22.24-15.69L22.24-15.69Q21.86-15.37 21.73-15.12L21.73-15.12L21.73-15.12Q21.61-14.87 21.67-13.70L21.67-13.70L21.67-13.70Q21.73-12.54 21.67-9.70L21.67-9.70L21.67-9.70Q23.50-9.39 25.26-8.57L25.26-8.57L24.89-8.32L24.89-8.32Q24.82-7.94 24.79-7.78L24.79-7.78L24.79-7.78Q24.76-7.62 24.35-7.21L24.35-7.21L24.35-7.21Q23.94-6.80 23.00-5.73L23.00-5.73L23.88-5.54L21.80-4.28L21.80-4.28Q21.86 6.87 21.80 7.09L21.80 7.09L21.80 7.09Q21.73 7.31 21.67 7.56L21.67 7.56L21.86 7.56L21.86 7.56Q22.05 7.94 22.14 8.22L22.14 8.22L22.14 8.22Q22.24 8.51 22.24 9.42L22.24 9.42L22.24 9.42Q22.24 10.33 21.99 10.90L21.99 10.90L21.99 10.90Q21.73 11.47 21.36 12.79L21.36 12.79L20.29 13.42L20.29 13.42Q20.03 13.23 19.94 13.10L19.94 13.10L19.94 13.10Q19.84 12.98 19.28 12.79L19.28 12.79L19.28 12.79Q18.71 12.60 17.58 11.91L17.58 11.91L15.75 10.02L15.75 10.02Q15.12 9.83 14.80 9.67L14.80 9.67L14.80 9.67Q14.49 9.51 14.30 9.54L14.30 9.54L14.30 9.54Q14.11 9.58 13.92 9.64L13.92 9.64L13.42 9.32L13.42 9.32Q13.42 8.63 13.45 8.10L13.45 8.10L13.45 8.10Q13.48 7.56 12.51 4.88L12.51 4.88L12.51 4.88Q11.53 2.21 11.15 1.61L11.15 1.61L11.15 1.61Q10.77 1.01 10.39 0.38L10.39 0.38L9.39 1.45L9.07 1.45L8.25 2.58L8.25 2.58Q7.88 2.39 7.43 2.58L7.43 2.58L6.62 2.27L6.11 2.71L6.11 2.71Q5.54 2.58 5.26 2.55L5.26 2.55L5.26 2.55Q4.98 2.52 4.50 2.17L4.50 2.17L4.50 2.17Q4.03 1.83 3.02 0.88L3.02 0.88L3.02 0.50L3.02 0.50Q3.59 0.25 4.00 0.16L4.00 0.16L4.00 0.16Q4.41 0.06 6.30-1.61L6.30-1.61L6.30-1.61Q8.19-3.28 10.14-4.66L10.14-4.66L10.14-4.66Q12.10-6.05 13.45-6.49L13.45-6.49L13.45-6.49Q14.80-6.93 17.20-8.19L17.20-8.19L17.20-8.19Q17.20-9.83 17.26-11.65L17.26-11.65L15.62-10.27L11.59-5.86L11.59-5.86Q10.96-5.54 10.58-5.36L10.58-5.36L10.58-5.36Q10.21-5.17 9.48-5.13L9.48-5.13L9.48-5.13Q8.76-5.10 8.32-5.36L8.32-5.36L8.32-5.36Q7.88-5.61 7.12-6.11L7.12-6.11L7.12-6.11Q6.49-7.37 5.54-8.63L5.54-8.63L5.10-8.76L4.47-9.77L4.47-9.77Q4.66-10.65 5.07-11.25L5.07-11.25L5.07-11.25Q5.48-11.84 5.67-12.03L5.67-12.03L5.67-12.03Q5.86-12.22 5.92-12.66L5.92-12.66L7.06-13.23L10.46-22.11L10.46-22.11Q9.51-21.42 8.44-21.61L8.44-21.61L8.44-21.61Q7.88-22.30 7.56-22.55L7.56-22.55L7.56-22.55Q7.25-22.81 7.09-23.31L7.09-23.31L7.09-23.31Q6.93-23.81 6.36-25.01L6.36-25.01L5.17-26.08L4.79-27.03L5.10-28.10L5.10-28.10Q5.92-28.54 6.74-28.92L6.74-28.92L7.50-28.48L7.88-28.60L8.00-28.16L8.00-28.16Q8.25-28.10 8.47-28.07L8.47-28.07L8.47-28.07Q8.69-28.04 10.05-28.63L10.05-28.63L10.05-28.63Q11.40-29.23 13.92-30.74L13.92-30.74L13.92-30.74Q16.19-36.29 16.70-37.71L16.70-37.71L16.70-37.71Q17.20-39.12 16.98-39.60L16.98-39.60L16.98-39.60Q16.76-40.07 16.88-40.19L16.88-40.19L16.88-40.19Q17.01-40.32 17.14-40.70L17.14-40.70ZM19.72-27.28L18.77-26.96L18.77-26.96Q17.07-22.55 15.37-18.27L15.37-18.27L18.59-20.35L19.72-27.28ZM43.09-19.66L43.03-19.78L43.03-19.78Q41.39-19.03 40.54-18.68L40.54-18.68L40.54-18.68Q39.69-18.33 38.65-17.61L38.65-17.61L38.65-17.61Q37.61-16.88 35.28-15.18L35.28-15.18L35.53-15.06L35.53-15.06Q36.29-12.92 36.67-10.77L36.67-10.77L36.67-10.77Q38.37-12.92 39.12-13.67L39.12-13.67L39.12-13.67Q39.88-14.43 39.91-14.68L39.91-14.68L39.91-14.68Q39.94-14.93 40.07-15.25L40.07-15.25L41.14-16.25L43.09-19.66ZM40.70-19.15L40.57-19.40L40.57-19.40Q40.19-19.34 39.94-19.25L39.94-19.25L39.94-19.25Q39.69-19.15 38.97-18.68L38.97-18.68L38.97-18.68Q38.24-18.21 36.67-17.01L36.67-17.01L36.67-17.01Q38.62-18.08 40.70-19.15L40.70-19.15ZM47.12-7.88L45.93-9.83L45.93-9.83Q47.06-8.69 50.62-5.95L50.62-5.95L50.62-5.95Q54.18-3.21 56.01-1.95L56.01-1.95L56.01-1.95Q60.16 4.28 60.51 5.10L60.51 5.10L60.51 5.10Q60.86 5.92 60.70 6.39L60.70 6.39L60.70 6.39Q60.54 6.87 60.51 7.43L60.51 7.43L60.51 7.43Q60.48 8.00 60.16 9.07L60.16 9.07L60.16 9.07Q59.85 10.14 59.60 10.39L59.60 10.39L59.60 10.39Q59.35 10.65 58.84 11.40L58.84 11.40L59.16 10.96L58.84 10.77L58.84 10.77Q57.96 11.34 57.55 11.62L57.55 11.62L57.55 11.62Q57.14 11.91 56.57 12.10L56.57 12.10L56.57 12.10Q56.01 12.29 55.09 11.94L55.09 11.94L55.09 11.94Q54.18 11.59 54.09 11.62L54.09 11.62L54.09 11.62Q53.99 11.65 53.80 11.84L53.80 11.84L53.80 11.84Q53.55 11.59 52.57 11.34L52.57 11.34L52.57 11.34Q51.60 11.09 50.40 10.77L50.40 10.77L51.03 10.52L51.03 10.52Q50.59 10.14 50.09 9.83L50.09 9.83L50.09 9.83Q49.58 9.51 47.60 9.42L47.60 9.42L47.60 9.42Q45.61 9.32 44.89 9.48L44.89 9.48L44.89 9.48Q44.16 9.64 43.22 9.80L43.22 9.80L43.22 9.80Q42.27 9.95 39.88 10.14L39.88 10.14L39.88 10.14Q40.76 9.95 41.17 9.89L41.17 9.89L41.17 9.89Q41.58 9.83 41.80 9.67L41.80 9.67L41.80 9.67Q42.02 9.51 42.27 9.39L42.27 9.39L42.27 9.39Q41.71 9.64 41.20 9.58L41.20 9.58L44.48 7.18L44.48 7.18Q47.00 4.54 48.70 1.32L48.70 1.32L48.70 1.32Q47.82-1.26 47.50-2.33L47.50-2.33L47.50-2.33Q47.19-3.40 46.59-4.38L46.59-4.38L46.59-4.38Q45.99-5.36 44.67-7.81L44.67-7.81L45.11-7.56L45.11-8.19L45.74-7.88L45.74-7.88Q45.30-8.25 45.61-8.82L45.61-8.82L47.12-7.88ZM16.70-2.65L16.82-3.09L16.82-3.09Q14.24-2.02 11.91-0.50L11.91-0.50L11.40 0L11.65 0.57L11.65 0.57Q13.10 1.57 13.70 2.02L13.70 2.02L13.70 2.02Q14.30 2.46 14.71 2.58L14.71 2.58L14.71 2.58Q15.12 2.71 15.69 2.96L15.69 2.96L16.13 2.39L15.62 1.83L16.13 1.89L16.13 1.89Q16.38-0.25 16.76-2.46L16.76-2.46L16.76-2.46Q16.38-2.21 16.07-2.27L16.07-2.27L16.70-2.65ZM105.21-41.58L105.71-41.90L105.71-41.90Q105.84-41.96 106.82-41.27L106.82-41.27L106.82-41.27Q107.79-40.57 108.23-40.38L108.23-40.38L108.36-40.45L109.31-39.75L109.43-40.01L109.62-40.01L109.37-39.75L109.37-39.75Q110.00-38.87 110.34-38.59L110.34-38.59L110.34-38.59Q110.69-38.30 110.75-38.12L110.75-38.12L110.75-38.12Q110.82-37.93 111.01-37.55L111.01-37.55L111.01-37.55Q110.94-37.04 110.63-36.73L110.63-36.73L110.63-36.73Q110.31-36.60 110.12-36.60L110.12-36.60L110.12-36.60Q109.94-36.60 109.87-36.54L109.87-36.54L109.87-36.54Q109.81-36.48 109.62-36.29L109.62-36.29L109.62-36.29Q109.37-35.91 109.27-35.63L109.27-35.63L109.27-35.63Q109.18-35.34 108.80-31.18L108.80-31.18L109.05-31.12L109.18-31.25L109.31-31.37L109.56-31.12L109.94-30.87L109.94-30.87Q110.19-31.18 110.50-31.25L110.50-31.25L110.50-31.25Q110.63-31.18 110.94-31.09L110.94-31.09L110.94-31.09Q111.26-31.00 111.32-30.87L111.32-30.87L111.45-30.68L112.45-29.93L113.02-29.23L112.96-28.92L112.96-28.92Q113.21-29.11 113.31-29.17L113.31-29.17L113.31-29.17Q113.40-29.23 113.46-29.23L113.46-29.23L113.46-29.23Q113.53-29.23 113.72-29.23L113.72-29.23L113.53-28.98L111.70-27.22L111.45-26.90L110.88-26.52L111.13-26.40L111.19-26.21L111.01-26.08L111.01-26.08Q110.75-26.02 110.60-26.05L110.60-26.05L110.60-26.05Q110.44-26.08 110.38-25.99L110.38-25.99L110.38-25.99Q110.31-25.89 110.12-25.77L110.12-25.77L109.87-25.07L109.87-25.52L109.87-25.52Q109.12-24.63 108.58-24.16L108.58-24.16L108.58-24.16Q108.05-23.69 108.05-22.14L108.05-22.14L108.05-22.14Q108.05-20.60 107.92-19.12L107.92-19.12L107.92-19.12Q107.79-17.64 107.79-16.54L107.79-16.54L107.79-16.54Q107.79-15.44 107.79-15.37L107.79-15.37L107.79-15.37Q108.30-15.56 108.58-15.62L108.58-15.62L108.58-15.62Q108.86-15.69 110.00-16.13L110.00-16.13L110.00-16.13Q111.13-16.57 111.32-16.63L111.32-16.63L110.25-19.03L110.75-18.27L110.88-18.27L110.88-18.27Q110.94-18.46 110.97-18.55L110.97-18.55L110.97-18.55Q111.01-18.65 110.88-18.96L110.88-18.96L110.88-18.96Q110.75-19.28 110.44-20.22L110.44-20.22L110.69-19.84L110.82-20.03L111.13-19.59L111.19-19.72L112.27-18.71L112.39-18.77L112.39-18.77Q112.33-19.15 112.30-19.62L112.30-19.62L112.30-19.62Q112.27-20.10 112.33-20.16L112.33-20.16L112.33-20.16Q112.45-19.84 112.71-19.66L112.71-19.66L112.71-19.66Q113.27-19.28 113.56-19.12L113.56-19.12L113.56-19.12Q113.84-18.96 114.16-18.93L114.16-18.93L114.16-18.93Q114.47-18.90 114.57-18.93L114.57-18.93L114.57-18.93Q114.66-18.96 114.72-19.03L114.72-19.03L114.91-18.77L114.91-18.77Q115.04-18.90 115.13-18.93L115.13-18.93L115.13-18.93Q115.23-18.96 115.35-18.93L115.35-18.93L115.35-18.93Q115.48-18.90 116.11-18.74L116.11-18.74L116.11-18.74Q116.74-18.59 116.90-18.65L116.90-18.65L116.90-18.65Q117.05-18.71 117.15-18.68L117.15-18.68L117.15-18.68Q117.24-18.65 117.37-18.68L117.37-18.68L117.37-18.68Q117.50-18.71 117.72-18.59L117.72-18.59L117.72-18.59Q117.94-18.46 118.28-18.33L118.28-18.33L118.28-18.33Q118.63-18.21 118.85-18.40L118.85-18.40L118.85-18.40Q119.07-18.59 119.48-18.52L119.48-18.52L119.48-18.52Q119.89-18.46 120.58-18.36L120.58-18.36L120.58-18.36Q121.28-18.27 121.59-17.89L121.59-17.89L121.59-17.89Q121.91-17.51 122.47-16.95L122.47-16.95L122.47-16.95Q122.47-16.70 122.47-16.60L122.47-16.60L122.47-16.60Q122.47-16.51 122.66-16.25L122.66-16.25L122.66-16.25Q122.85-16.00 122.85-15.88L122.85-15.88L122.85-15.88Q122.85-15.75 122.91-15.62L122.91-15.62L123.29-15.44L123.35-14.68L123.35-14.68Q122.91-14.24 122.69-14.08L122.69-14.08L122.69-14.08Q122.47-13.92 122.13-13.83L122.13-13.83L122.13-13.83Q121.78-13.73 121.02-13.61L121.02-13.61L120.83-13.23L120.96-13.04L120.90-12.73L120.90-12.73Q120.46-12.47 120.20-12.29L120.20-12.29L120.20-12.29Q119.95-12.10 119.10-12.16L119.10-12.16L119.10-12.16Q118.25-12.22 117.15-12.10L117.15-12.10L117.15-12.10Q116.05-11.97 115.70-11.75L115.70-11.75L115.70-11.75Q115.35-11.53 114.91-11.53L114.91-11.53L114.91-11.53Q114.47-11.53 114.16-11.40L114.16-11.40L114.16-11.40Q113.84-11.28 113.78-11.28L113.78-11.28L113.72-11.09L113.72-11.09Q113.34-11.03 113.15-10.99L113.15-10.99L113.15-10.99Q112.96-10.96 112.80-10.93L112.80-10.93L112.80-10.93Q112.64-10.90 112.27-10.74L112.27-10.74L112.27-10.74Q111.89-10.58 111.76-10.58L111.76-10.58L111.70-10.46L111.70-10.46Q111.32-10.33 111.01-10.39L111.01-10.39L111.13-10.52L110.94-10.65L110.94-10.65Q110.44-10.46 109.94-10.14L109.94-10.14L110.88-10.39L110.88-10.39Q110.69-10.14 110.28-10.02L110.28-10.02L110.28-10.02Q109.87-9.89 109.75-9.83L109.75-9.83L109.75-9.83Q109.62-9.77 109.43-9.58L109.43-9.58L109.37-9.77L108.86-9.39L108.86-9.39Q108.86-9.32 108.86-9.26L108.86-9.26L108.74-9.39L108.17-9.13L108.17-9.13Q107.92-8.06 107.73-7.12L107.73-7.12L107.86-7.12L107.86-7.12Q107.73-6.55 107.92-6.05L107.92-6.05L107.73-5.92L107.86-5.92L107.86-5.92Q107.79-5.10 107.70-4.50L107.70-4.50L107.70-4.50Q107.60-3.91 107.48-3.02L107.48-3.02L107.48-3.02Q107.35-2.14 107.35-1.51L107.35-1.51L107.60-1.89L107.67-1.83L107.67-1.83Q107.41-1.64 107.41-1.32L107.41-1.32L107.23-1.20L107.23-1.20Q107.29-1.01 107.35-0.91L107.35-0.91L107.35-0.91Q107.41-0.82 107.38-0.63L107.38-0.63L107.38-0.63Q107.35-0.44 107.29 0.06L107.29 0.06L107.54-0.25L107.54-0.25Q107.54-0.19 107.57-0.06L107.57-0.06L107.57-0.06Q107.60 0.06 107.51 0.28L107.51 0.28L107.51 0.28Q107.41 0.50 107.29 1.01L107.29 1.01L107.41 1.07L107.41 1.07Q107.41 1.32 107.38 1.80L107.38 1.80L107.38 1.80Q107.35 2.27 107.29 2.46L107.29 2.46L107.29 2.46Q107.23 2.65 107.35 2.83L107.35 2.83L107.10 2.83L107.10 3.28L107.41 3.28L107.41 3.28Q107.35 3.40 107.35 3.59L107.35 3.59L107.35 3.59Q107.35 3.78 107.29 4.25L107.29 4.25L107.29 4.25Q107.23 4.72 107.10 5.10L107.10 5.10L107.23 5.10L107.23 5.10Q107.23 5.36 107.23 5.48L107.23 5.48L107.23 5.48Q107.23 5.61 107.32 5.86L107.32 5.86L107.32 5.86Q107.41 6.11 107.32 6.62L107.32 6.62L107.32 6.62Q107.23 7.12 107.29 7.28L107.29 7.28L107.29 7.28Q107.35 7.43 107.29 7.56L107.29 7.56L107.29 7.56Q107.23 7.69 107.26 7.91L107.26 7.91L107.26 7.91Q107.29 8.13 107.26 8.73L107.26 8.73L107.26 8.73Q107.23 9.32 107.73 10.24L107.73 10.24L107.73 10.24Q108.23 11.15 108.27 11.47L108.27 11.47L108.27 11.47Q108.30 11.78 108.42 12.22L108.42 12.22L107.41 12.73L106.41 13.80L106.41 13.67L106.41 13.67Q106.28 13.54 106.19 13.54L106.19 13.54L106.19 13.54Q106.09 13.54 105.84 13.51L105.84 13.51L105.84 13.51Q105.59 13.48 105.53 13.36L105.53 13.36L105.53 13.36Q105.08 13.48 104.86 13.61L104.86 13.61L104.86 13.61Q104.64 13.73 104.45 13.64L104.45 13.64L104.45 13.64Q104.27 13.54 104.08 13.67L104.08 13.67L104.08 13.67Q103.89 13.80 103.57 14.05L103.57 14.05L103.19 14.55L103.19 14.55Q102.56 13.92 102.28 13.67L102.28 13.67L102.28 13.67Q102.00 13.42 101.81 13.36L101.81 13.36L101.81 13.36Q101.62 13.29 101.24 13.23L101.24 13.23L101.24 13.23Q100.74 12.10 100.08 10.43L100.08 10.43L100.08 10.43Q99.41 8.76 99.29 8.63L99.29 8.63L99.29 8.63Q99.16 8.57 98.97 8.44L98.97 8.44L98.91 8.25L98.72 8.32L98.72 8.32Q98.15 7.94 97.71 7.43L97.71 7.43L97.40 7.18L97.46 7.31L97.46 7.31Q97.46 7.31 96.93 6.80L96.93 6.80L96.93 6.80Q96.39 6.30 95.38 5.23L95.38 5.23L96.70 6.30L96.89 6.24L96.14 5.48L96.14 5.48Q96.89 5.99 97.21 6.24L97.21 6.24L97.21 6.24Q97.52 6.49 97.65 6.55L97.65 6.55L97.65 6.55Q97.78 6.62 97.97 6.62L97.97 6.62L97.97 6.62Q97.02 5.99 96.20 5.23L96.20 5.23L96.20 5.23Q96.96 5.73 97.27 5.95L97.27 5.95L97.27 5.95Q97.59 6.17 97.68 6.17L97.68 6.17L97.68 6.17Q97.78 6.17 98.03 6.17L98.03 6.17L97.78 5.80L98.15 5.80L96.58 4.47L96.52 4.22L96.52 4.22Q97.15 4.35 97.71 4.22L97.71 4.22L97.71 4.22Q97.71 4.09 97.90 3.91L97.90 3.91L95.26 2.39L95.26 2.39Q95.76 2.65 96.17 2.74L96.17 2.74L96.17 2.74Q96.58 2.83 97.40 3.18L97.40 3.18L97.40 3.18Q98.22 3.53 98.50 3.56L98.50 3.56L98.50 3.56Q98.78 3.59 99.22 3.65L99.22 3.65L99.48 3.15L99.67 3.09L100.67-5.61L100.67-5.61Q100.42-5.48 100.17-5.29L100.17-5.29L99.92-5.36L99.79-5.23L99.16-4.91L99.04-4.72L98.72-4.60L98.78-4.79L99.48-5.23L99.48-5.29L99.48-5.29Q99.22-5.23 98.88-5.04L98.88-5.04L98.88-5.04Q98.53-4.85 98.47-4.79L98.47-4.79L98.53-4.72L98.47-4.35L98.09-4.09L97.97-4.28L97.97-4.28Q97.78-4.03 97.59-3.91L97.59-3.91L97.59-3.91Q97.40-3.78 97.30-3.78L97.30-3.78L97.30-3.78Q97.21-3.78 97.02-3.78L97.02-3.78L96.96-3.59L96.96-3.59Q96.58-3.28 96.20-3.34L96.20-3.34L96.52-3.53L96.58-3.72L96.14-3.46L95.70-2.96L95.70-2.96Q95.38-2.71 95.22-2.55L95.22-2.55L95.22-2.55Q95.07-2.39 94.97-2.39L94.97-2.39L94.97-2.39Q94.88-2.39 94.75-2.39L94.75-2.39L94.69-2.33L94.69-2.33Q94.63-2.33 94.25-2.08L94.25-2.08L94.25-2.08Q93.87-1.83 93.81-1.70L93.81-1.70L93.62-1.83L93.18-1.32L93.18-1.32Q92.67-1.13 92.36-0.82L92.36-0.82L92.36-1.01L92.17-1.01L92.17-0.69L91.79-0.44L91.66-0.32L91.41-0.25L91.48-0.38L91.48-0.38Q91.16-0.38 91.10-0.25L91.10-0.25L91.35-0.19L91.03 0.13L90.66 0.25L90.41 0.57L90.28 0.50L90.09 0.82L89.96 0.76L89.78 1.07L89.52 1.07L89.46 1.20L89.46 1.20Q88.89 1.70 88.48 1.92L88.48 1.92L88.48 1.92Q88.07 2.14 87.41 2.43L87.41 2.43L87.41 2.43Q86.75 2.71 86.03 2.77L86.03 2.77L86.03 2.77Q85.30 2.83 85.05 2.71L85.05 2.71L85.05 2.71Q84.80 2.58 84.48 2.33L84.48 2.33L84.48 2.33Q84.48 2.27 84.51 2.24L84.51 2.24L84.51 2.24Q84.55 2.21 84.64 1.92L84.64 1.92L84.64 1.92Q84.73 1.64 84.70 0.82L84.70 0.82L84.70 0.82Q84.67 0 84.45-0.19L84.45-0.19L84.45-0.19Q84.23-0.38 84.20-0.50L84.20-0.50L84.20-0.50Q84.17-0.63 84.04-0.82L84.04-0.82L84.04-0.82Q84.29-1.26 84.48-1.45L84.48-1.45L84.48-1.45Q84.67-1.64 84.61-1.80L84.61-1.80L84.61-1.80Q84.55-1.95 84.55-2.08L84.55-2.08L84.55-2.08Q84.55-2.21 84.67-2.21L84.67-2.21L84.29-2.71L84.29-2.71Q84.48-3.21 84.61-3.37L84.61-3.37L84.61-3.37Q84.73-3.53 84.70-3.65L84.70-3.65L84.70-3.65Q84.67-3.78 84.67-3.84L84.67-3.84L84.36-3.97L84.73-4.03L84.73-4.41L84.36-4.72L84.48-4.98L84.48-4.98Q84.04-5.48 84.04-6.05L84.04-6.05L83.92-6.11L83.85-6.43L84.04-6.55L84.17-6.80L83.98-6.87L83.92-6.87L84.04-6.87L84.36-7.31L84.36-7.31Q84.48-7.25 84.58-7.25L84.58-7.25L84.58-7.25Q84.67-7.25 84.70-7.28L84.70-7.28L84.70-7.28Q84.73-7.31 84.80-7.31L84.80-7.31L84.92-7.25L85.24-7.56L85.55-7.62L85.55-7.88L85.55-7.88Q85.68-7.88 85.74-7.88L85.74-7.88L85.74-7.88Q85.81-7.88 85.93-7.97L85.93-7.97L85.93-7.97Q86.06-8.06 86.31-8.38L86.31-8.38L86.50-8.57L86.50-8.32L86.94-8.57L87.00-8.76L87.00-8.76Q87.13-8.76 87.22-8.79L87.22-8.79L87.22-8.79Q87.32-8.82 87.73-8.73L87.73-8.73L87.73-8.73Q88.14-8.63 88.36-8.51L88.36-8.51L88.36-8.51Q88.58-8.38 88.77-8.47L88.77-8.47L88.77-8.47Q88.96-8.57 89.18-8.76L89.18-8.76L89.18-8.76Q89.40-8.95 89.52-9.01L89.52-9.01L89.52-9.13L89.96-9.45L90.34-9.95L91.54-11.09L91.85-11.47L91.85-11.47Q92.17-11.65 92.55-11.97L92.55-11.97L93.43-12.98L93.56-13.10L95.51-15.12L95.51-15.12Q95.63-15.25 95.79-15.34L95.79-15.34L95.79-15.34Q95.95-15.44 99.29-18.77L99.29-18.77L102.00-21.48L102.19-21.67L102.19-21.67Q102.38-22.05 102.56-22.18L102.56-22.18L102.56-22.18Q102.75-22.30 102.75-22.71L102.75-22.71L102.75-22.71Q102.75-23.12 102.88-24.13L102.88-24.13L102.88-24.13Q102.06-23.75 101.52-23.56L101.52-23.56L101.52-23.56Q100.99-23.37 99.51-22.59L99.51-22.59L99.51-22.59Q98.03-21.80 95.26-19.97L95.26-19.97L95.26-19.97Q92.48-18.14 92.33-18.14L92.33-18.14L92.33-18.14Q92.17-18.14 92.04-18.02L92.04-18.02L91.79-17.70L91.54-17.70L91.48-17.58L91.29-17.58L91.10-17.39L90.85-17.26L90.53-16.95L90.59-17.20L90.47-17.14L90.47-17.14Q90.47-16.95 90.50-16.82L90.50-16.82L90.50-16.82Q90.53-16.70 90.25-16.44L90.25-16.44L90.25-16.44Q89.96-16.19 89.46-15.44L89.46-15.44L89.46-15.44Q89.14-15.18 88.99-15.06L88.99-15.06L88.99-15.06Q88.83-14.93 88.55-14.80L88.55-14.80L88.55-14.80Q88.26-14.68 88.07-14.77L88.07-14.77L88.07-14.77Q87.89-14.87 87.63-14.93L87.63-14.93L87.63-14.93Q87.57-15.44 87.54-15.69L87.54-15.69L87.54-15.69Q87.51-15.94 87.22-16.22L87.22-16.22L87.22-16.22Q86.94-16.51 86.97-16.76L86.97-16.76L86.97-16.76Q87.00-17.01 87.00-17.51L87.00-17.51L86.63-17.70L86.44-18.14L86.63-18.96L86.63-18.96Q86.56-19.15 86.50-19.21L86.50-19.21L86.50-19.21Q86.44-19.28 86.44-19.47L86.44-19.47L86.44-19.47Q86.44-19.66 86.59-19.81L86.59-19.81L86.59-19.81Q86.75-19.97 86.69-20.16L86.69-20.16L86.69-20.16Q86.63-20.35 86.69-20.54L86.69-20.54L86.69-20.54Q86.75-20.73 86.53-21.04L86.53-21.04L86.53-21.04Q86.31-21.36 86.31-21.51L86.31-21.51L86.31-21.51Q86.31-21.67 86.40-21.83L86.40-21.83L86.40-21.83Q86.50-21.99 86.81-22.24L86.81-22.24L87.44-22.49L87.44-22.49Q88.01-23.12 88.33-23.47L88.33-23.47L88.33-23.47Q88.64-23.81 89.21-24.57L89.21-24.57L89.21-24.57Q89.78-25.33 90.31-26.24L90.31-26.24L90.31-26.24Q90.85-27.15 91.60-28.66L91.60-28.66L91.60-28.66Q92.36-30.18 92.86-31.53L92.86-31.53L92.86-31.53Q93.37-32.89 93.33-33.11L93.33-33.11L93.33-33.11Q93.30-33.33 93.30-33.64L93.30-33.64L93.43-33.70L93.43-33.70Q93.49-33.96 93.49-34.11L93.49-34.11L93.49-34.11Q93.49-34.27 93.40-34.40L93.40-34.40L93.40-34.40Q93.30-34.52 93.11-34.97L93.11-34.97L93.37-35.28L93.49-35.09L93.62-35.34L93.62-35.34Q93.81-35.28 94.19-35.12L94.19-35.12L94.19-35.12Q94.56-34.97 94.81-34.81L94.81-34.81L94.81-34.81Q95.07-34.65 95.35-34.49L95.35-34.49L95.35-34.49Q95.63-34.34 96.14-33.89L96.14-33.89L96.14-33.89Q96.26-32.95 96.39-32.60L96.39-32.60L96.39-32.60Q96.52-32.26 96.45-32.07L96.45-32.07L96.45-32.07Q96.39-31.88 96.39-31.69L96.39-31.69L95.51-30.93L95.51-30.93Q94.63-27.34 94.22-26.33L94.22-26.33L94.22-26.33Q93.81-25.33 93.74-25.04L93.74-25.04L93.74-25.04Q93.68-24.76 93.56-24.38L93.56-24.38L93.56-24.38Q95.00-25.26 95.51-25.52L95.51-25.52L95.51-25.52Q96.01-25.77 96.77-26.21L96.77-26.21L96.77-26.21Q97.52-26.65 99.04-27.44L99.04-27.44L99.04-27.44Q100.55-28.22 101.37-28.51L101.37-28.51L101.37-28.51Q102.19-28.79 103.38-29.36L103.38-29.36L103.38-29.36Q104.08-35.91 104.08-36.67L104.08-36.67L104.08-36.67Q104.08-37.42 104.08-38.56L104.08-38.56L102.75-39.75L102.88-39.82L102.88-39.82Q102.69-40.32 102.60-40.45L102.60-40.45L102.60-40.45Q102.50-40.57 102.53-40.73L102.53-40.73L102.53-40.73Q102.56-40.89 102.38-40.95L102.38-40.95L102.38-40.95Q102.19-41.01 102.00-41.39L102.00-41.39L102.12-41.39L102.00-41.64L102.06-41.83L102.06-41.83Q102.56-41.77 102.78-41.71L102.78-41.71L102.78-41.71Q103.00-41.64 103.26-41.71L103.26-41.71L103.26-41.71Q103.51-41.77 103.89-41.77L103.89-41.77L103.89-41.77Q104.27-41.77 104.52-41.64L104.52-41.64L104.71-41.77L105.21-41.58ZM84.29-36.60L84.48-36.41L84.48-36.41Q84.73-36.23 85.05-36.23L85.05-36.23L85.55-35.59L85.81-35.59L85.93-35.28L86.25-35.34L86.25-35.34Q86.81-34.65 87.16-34.34L87.16-34.34L87.16-34.34Q87.51-34.02 87.70-33.33L87.70-33.33L87.70-33.33Q87.89-32.63 87.98-32.07L87.98-32.07L87.98-32.07Q88.07-31.50 87.95-31.34L87.95-31.34L87.95-31.34Q87.82-31.18 87.57-30.81L87.57-30.81L87.57-30.81Q87.00-30.49 86.50-30.11L86.50-30.11L86.50-30.11Q83.22-25.52 80.01-20.79L80.01-20.79L81.21-20.22L81.21-20.22Q81.65-19.66 81.90-19.44L81.90-19.44L81.90-19.44Q82.15-19.21 82.25-18.68L82.25-18.68L82.25-18.68Q82.34-18.14 82.40-18.05L82.40-18.05L82.40-18.05Q82.47-17.96 82.53-17.89L82.53-17.89L82.84-18.08L82.84-18.08Q82.78-17.96 82.66-17.42L82.66-17.42L82.66-17.42Q82.53-16.88 82.75-16.03L82.75-16.03L82.75-16.03Q82.97-15.18 82.97-14.46L82.97-14.46L82.97-14.46Q82.97-13.73 83.16-12.60L83.16-12.60L83.16-12.60Q83.35-11.47 83.25-9.86L83.25-9.86L83.25-9.86Q83.16-8.25 83.03-7.69L83.03-7.69L83.03-7.69Q82.91-7.12 82.78-6.30L82.78-6.30L82.91-6.36L82.91-6.36Q82.47-1.13 82.59 0.50L82.59 0.50L82.59 0.50Q82.72 2.14 82.53 2.46L82.53 2.46L82.53 2.46Q82.34 2.77 82.34 2.93L82.34 2.93L82.34 2.93Q82.34 3.09 82.28 3.40L82.28 3.40L82.28 3.40Q81.96 3.40 81.81 3.50L81.81 3.50L81.81 3.50Q81.65 3.59 81.52 3.50L81.52 3.50L81.52 3.50Q81.40 3.40 81.21 3.28L81.21 3.28L81.21 3.28Q80.89 3.40 80.70 3.28L80.70 3.28L80.51 3.34L80.51 3.34Q79.95 3.91 79.69 4.66L79.69 4.66L79.38 4.85L79.38 4.85Q79.32 4.72 79.00 4.22L79.00 4.22L79.00 4.22Q78.69 3.72 78.31 3.28L78.31 3.28L77.62 2.83L77.43 2.33L76.92 1.89L76.92 1.89Q76.67 1.32 76.48 1.01L76.48 1.01L76.48 1.01Q76.29 0.69 76.04 0L76.04 0L76.04 0Q75.79-0.69 75.57-0.91L75.57-0.91L75.57-0.91Q75.35-1.13 75.10-1.39L75.10-1.39L75.10-1.39Q74.66-1.64 74.40-1.89L74.40-1.89L74.40-1.89Q74.53-2.33 74.56-2.52L74.56-2.52L74.56-2.52Q74.59-2.71 74.50-2.74L74.50-2.74L74.50-2.74Q74.40-2.77 74.40-2.90L74.40-2.90L74.59-2.96L74.59-2.83L75.03-3.53L75.35-3.78L75.35-3.78Q75.79-4.79 75.98-5.36L75.98-5.36L75.98-5.36Q76.17-5.92 76.55-7.28L76.55-7.28L76.55-7.28Q76.92-8.63 76.99-9.04L76.99-9.04L76.99-9.04Q77.05-9.45 77.17-9.92L77.17-9.92L77.17-9.92Q77.30-10.39 77.62-12.79L77.62-12.79L77.62-12.79Q77.93-15.18 77.93-15.84L77.93-15.84L77.93-15.84Q77.93-16.51 78.06-17.51L78.06-17.51L78.06-17.51Q76.42-14.62 75.57-13.51L75.57-13.51L75.57-13.51Q74.72-12.41 72.39-8.63L72.39-8.63L72.39-8.63Q71.82-8.13 71.57-7.88L71.57-7.88L71.57-7.88Q71.32-7.62 71.03-7.62L71.03-7.62L71.03-7.62Q70.75-7.62 70.62-7.72L70.62-7.72L70.62-7.72Q70.50-7.81 70.18-7.94L70.18-7.94L69.68-7.56L69.49-7.75L69.49-7.75Q68.67-6.62 67.91-5.73L67.91-5.73L67.91-5.73Q67.91-5.92 67.95-6.08L67.95-6.08L67.95-6.08Q67.98-6.24 68.20-6.43L68.20-6.43L68.20-6.43Q68.42-6.62 68.80-7.25L68.80-7.25L69.17-7.56L69.17-7.81L68.98-7.88L68.17-7.25L68.10-6.87L67.72-6.55L67.72-6.55Q67.66-6.74 67.60-6.80L67.60-6.80L67.60-6.80Q67.54-6.87 67.35-7.15L67.35-7.15L67.35-7.15Q67.16-7.43 67.03-7.75L67.03-7.75L66.59-7.88L66.59-7.88Q66.09-8.51 65.87-8.69L65.87-8.69L65.87-8.69Q65.65-8.88 65.65-9.13L65.65-9.13L65.65-9.13Q65.65-9.39 65.36-9.58L65.36-9.58L65.36-9.58Q65.08-9.77 65.08-10.05L65.08-10.05L65.08-10.05Q65.08-10.33 64.86-10.55L64.86-10.55L64.86-10.55Q64.64-10.77 64.70-11.15L64.70-11.15L64.70-11.15Q64.76-11.53 64.67-11.81L64.67-11.81L64.67-11.81Q64.58-12.10 64.32-12.29L64.32-12.29L64.32-12.29Q64.07-12.47 64.04-12.69L64.04-12.69L64.04-12.69Q64.01-12.92 64.04-13.01L64.04-13.01L64.04-13.01Q64.07-13.10 64.13-13.36L64.13-13.36L64.13-13.36Q64.26-13.42 64.35-13.39L64.35-13.39L64.35-13.39Q64.45-13.36 64.54-13.36L64.54-13.36L64.54-13.36Q64.64-13.36 64.76-13.29L64.76-13.29L64.76-13.29Q64.89-13.23 65.02-13.04L65.02-13.04L65.02-13.04Q65.02-13.67 65.46-14.24L65.46-14.24L66.47-15.06L66.47-15.06Q68.73-18.14 69.65-19.18L69.65-19.18L69.65-19.18Q70.56-20.22 71.13-21.04L71.13-21.04L71.13-21.04Q71.69-21.86 72.17-22.49L72.17-22.49L72.17-22.49Q72.64-23.12 73.39-24.13L73.39-24.13L73.39-24.13Q74.15-25.14 74.37-25.48L74.37-25.48L74.37-25.48Q74.59-25.83 74.72-26.02L74.72-26.02L75.03-26.08L75.03-26.08Q76.80-28.48 77.17-28.82L77.17-28.82L77.17-28.82Q77.55-29.17 77.65-29.48L77.65-29.48L77.65-29.48Q77.74-29.80 78.09-30.08L78.09-30.08L78.09-30.08Q78.44-30.37 78.84-31.12L78.84-31.12L78.84-31.12Q79.25-31.88 83.41-36.23L83.41-36.23L83.41-36.23Q83.85-36.41 84.29-36.60L84.29-36.60ZM102.25-24.57L101.62-24.25L101.56-24.13L102.19-24.32L102.25-24.57ZM101.24-24.13L101.12-24.13L101.12-24.13Q100.80-24.00 100.64-23.81L100.64-23.81L100.64-23.81Q100.48-23.63 99.60-23.25L99.60-23.25L99.60-23.25Q98.72-22.87 97.97-22.33L97.97-22.33L97.97-22.33Q97.21-21.80 97.05-21.80L97.05-21.80L97.05-21.80Q96.89-21.80 96.70-21.80L96.70-21.80L96.58-21.48L96.58-21.61L96.26-21.36L96.26-21.36Q96.01-21.11 95.63-21.11L95.63-21.11L95.51-20.79L95.44-21.04L95.26-20.66L95.07-20.60L94.94-20.66L94.94-20.66Q94.56-20.35 94.12-20.10L94.12-20.10L94.12-20.10Q93.68-19.84 93.56-19.72L93.56-19.72L93.56-19.72Q93.18-19.47 92.99-19.09L92.99-19.09L92.92-19.03L92.99-19.21L92.99-19.21Q92.86-19.21 92.52-19.06L92.52-19.06L92.52-19.06Q92.17-18.90 91.92-18.71L91.92-18.71L91.79-18.46L91.79-18.46Q91.92-18.46 92.01-18.46L92.01-18.46L92.01-18.46Q92.11-18.46 92.61-18.81L92.61-18.81L92.61-18.81Q93.11-19.15 93.68-19.25L93.68-19.25L93.68-19.25Q94.25-19.34 95.82-20.48L95.82-20.48L95.82-20.48Q97.40-21.61 98.50-22.36L98.50-22.36L98.50-22.36Q99.60-23.12 100.01-23.31L100.01-23.31L100.01-23.31Q100.42-23.50 100.99-23.75L100.99-23.75L101.24-24.13ZM111.38-19.09L111.32-19.09L111.32-19.09Q111.51-18.52 111.89-18.08L111.89-18.08L111.38-19.09ZM102.00-17.14L101.24-16.57L96.52-11.72L94.19-9.64L93.93-9.32L93.93-9.32Q94.75-9.64 95.44-9.86L95.44-9.86L95.44-9.86Q96.14-10.08 101.62-12.73L101.62-12.73L102.00-17.14ZM117.18-12.22L117.18-12.22L117.18-12.22Q117.18-12.22 116.30-12.10L116.30-12.10L116.30-12.10Q115.42-11.97 115.29-11.84L115.29-11.84L115.29-11.84Q116.23-11.97 117.18-12.22ZM100.74-5.99L100.11-5.73L100.04-5.61L99.73-5.54L99.54-5.29L100.67-5.73L100.74-5.99ZM97.21-4.35L95.95-3.78L95.95-3.53L96.70-3.97L96.96-3.91L96.77-3.97L97.21-4.35ZM148.74-31.56L148.87-31.88L148.87-31.88Q150.95-31.63 151.99-31.53L151.99-31.53L151.99-31.53Q153.03-31.44 153.94-31.56L153.94-31.56L153.94-31.56Q154.85-31.69 155.77-31.34L155.77-31.34L155.77-31.34Q156.68-31.00 157.00-31.00L157.00-31.00L157.00-31.00Q157.31-31.00 157.47-30.96L157.47-30.96L157.47-30.96Q157.63-30.93 157.85-30.96L157.85-30.96L157.85-30.96Q158.07-31.00 158.32-30.81L158.32-30.81L158.32-30.81Q158.57-30.62 159.61-30.30L159.61-30.30L159.61-30.30Q160.65-29.99 161.19-29.70L161.19-29.70L161.19-29.70Q161.72-29.42 162.60-28.98L162.60-28.98L162.60-28.98Q162.67-28.16 162.82-27.78L162.82-27.78L162.82-27.78Q162.98-27.41 162.63-27.00L162.63-27.00L162.63-27.00Q162.29-26.59 162.22-26.43L162.22-26.43L162.22-26.43Q162.16-26.27 162.16-25.89L162.16-25.89L160.71-25.45L160.71-25.45Q160.59-25.20 160.43-25.01L160.43-25.01L160.43-25.01Q160.27-24.82 160.02-21.80L160.02-21.80L160.02-21.80Q159.77-18.77 159.99-13.77L159.99-13.77L159.99-13.77Q160.21-8.76 160.40-7.37L160.40-7.37L160.40-7.37Q160.59-5.99 160.40-5.32L160.40-5.32L160.40-5.32Q160.21-4.66 160.02-2.21L160.02-2.21L160.46-2.77L160.46-2.77Q160.21-1.89 160.15-1.48L160.15-1.48L160.15-1.48Q160.08-1.07 160.08-0.63L160.08-0.63L160.08-0.63Q160.08-0.19 159.96 0.57L159.96 0.57L159.96 0.57Q159.83 1.32 159.64 2.14L159.64 2.14L158.95 2.83L158.44 3.59L158.44 3.59Q158.13 3.84 157.81 4.00L157.81 4.00L157.81 4.00Q157.50 4.16 157.12 4.28L157.12 4.28L157.12 4.28Q156.74 4.41 156.43 4.60L156.43 4.60L156.37 5.54L156.37 5.54Q155.67 5.73 155.36 6.24L155.36 6.24L155.36 6.24Q154.85 6.11 154.63 6.05L154.63 6.05L154.63 6.05Q154.41 5.99 154.29 6.02L154.29 6.02L154.29 6.02Q154.16 6.05 153.97 6.11L153.97 6.11L153.97 6.11Q153.72 5.99 152.90 5.58L152.90 5.58L152.90 5.58Q152.08 5.17 151.64 4.72L151.64 4.72L151.64 4.72Q150.88 2.96 149.12 0.44L149.12 0.44L149.12 0.44Q147.36-2.08 146.41-3.97L146.41-3.97L147.10-3.02L145.59-5.54L146.10-4.98L146.60-4.54L144.40-7.50L144.71-7.43L145.91-5.80L147.99-3.78L147.99-3.78Q147.86-4.03 147.83-4.16L147.83-4.16L147.83-4.16Q147.80-4.28 147.45-4.63L147.45-4.63L147.45-4.63Q147.10-4.98 146.41-5.92L146.41-5.92L146.41-5.92Q146.60-5.73 147.33-5.36L147.33-5.36L147.33-5.36Q148.05-4.98 149.31-4.41L149.31-4.41L146.35-7.69L147.23-7.06L144.33-10.33L143.26-9.45L143.26-9.45Q142.51-8.19 142.00-7.31L142.00-7.31L142.00-7.31Q141.50-6.43 141.34-6.05L141.34-6.05L141.34-6.05Q141.18-5.67 140.99-5.45L140.99-5.45L140.99-5.45Q140.81-5.23 140.81-4.60L140.81-4.60L141.18-4.54L141.18-4.54Q140.99-4.16 140.68-3.59L140.68-3.59L140.68-3.59Q140.36-3.02 140.24-2.55L140.24-2.55L140.24-2.55Q140.11-2.08 139.92-1.73L139.92-1.73L139.92-1.73Q139.73-1.39 139.70-1.17L139.70-1.17L139.70-1.17Q139.67-0.95 139.48-0.50L139.48-0.50L139.48-0.50Q139.10-0.19 138.88-0.03L138.88-0.03L138.88-0.03Q138.66 0.13 138.06 0.03L138.06 0.03L138.06 0.03Q137.47-0.06 136.96-0.32L136.96-0.32L136.96-0.32Q136.46-0.57 135.64-1.07L135.64-1.07L134.57-3.46L133.31-4.47L133.31-4.47Q133.31-4.98 133.31-5.32L133.31-5.32L133.31-5.32Q133.31-5.67 133.59-6.24L133.59-6.24L133.59-6.24Q133.88-6.80 134.38-8.44L134.38-8.44L136.21-10.21L136.21-10.21Q137.91-15.44 138.57-17.29L138.57-17.29L138.57-17.29Q139.23-19.15 139.29-19.66L139.29-19.66L139.67-19.34L140.11-19.84L140.74-19.40L141.18-19.78L142.32-19.21L142.82-18.27L142.82-18.27Q143.07-18.52 143.51-18.46L143.51-18.46L143.70-17.45L143.70-17.45Q143.07-17.39 142.76-17.39L142.76-17.39L142.76-17.39Q142.25-16.19 142.03-15.78L142.03-15.78L142.03-15.78Q141.81-15.37 141.84-14.77L141.84-14.77L141.84-14.77Q141.88-14.18 141.59-13.26L141.59-13.26L141.59-13.26Q141.31-12.35 140.87-9.83L140.87-9.83L141.12-9.70L141.12-9.70Q143.26-11.59 144.14-12.35L144.14-12.35L144.14-12.35Q145.03-13.10 145.66-13.32L145.66-13.32L145.66-13.32Q146.29-13.54 147.23-13.86L147.23-13.86L144.96-11.84L148.11-13.92L146.41-12.66L144.33-10.52L145.40-9.20L145.40-9.20Q146.92-8.06 147.61-7.53L147.61-7.53L147.61-7.53Q148.30-6.99 148.43-6.99L148.43-6.99L148.43-6.99Q148.55-6.99 148.74-6.99L148.74-6.99L149.00-6.68L149.00-6.68Q149.69-6.17 150.00-5.95L150.00-5.95L150.00-5.95Q150.32-5.73 150.48-5.70L150.48-5.70L150.48-5.70Q150.63-5.67 150.88-5.67L150.88-5.67L150.88-5.67Q151.96-14.74 151.77-16.57L151.77-16.57L151.77-16.57Q151.58-18.40 151.86-19.69L151.86-19.69L151.86-19.69Q152.15-20.98 152.18-23.75L152.18-23.75L152.18-23.75Q152.21-26.52 152.02-27.06L152.02-27.06L152.02-27.06Q151.83-27.59 151.64-28.41L151.64-28.41L151.64-28.41Q150.63-28.66 150.00-29.42L150.00-29.42L148.43-31.37L148.74-31.56ZM169.41-20.03L168.90-20.54L168.90-20.54Q169.91-20.35 171.93-19.88L171.93-19.88L171.93-19.88Q173.94-19.40 175.99-18.59L175.99-18.59L175.99-18.59Q178.04-17.77 178.64-17.23L178.64-17.23L178.64-17.23Q179.24-16.70 180.05-16.13L180.05-16.13L180.05-16.13Q181.13-14.74 181.72-14.08L181.72-14.08L181.72-14.08Q182.32-13.42 183.52-11.18L183.52-11.18L183.52-11.18Q184.72-8.95 184.37-8.51L184.37-8.51L184.37-8.51Q184.02-8.06 183.58-6.80L183.58-6.80L183.58-6.80Q182.45-6.05 181.19-5.80L181.19-5.80L180.62-5.17L179.42-4.54L179.42-4.54Q178.92-5.04 178.51-5.10L178.51-5.10L178.51-5.10Q178.10-5.17 177.53-5.45L177.53-5.45L177.53-5.45Q176.97-5.73 175.93-6.17L175.93-6.17L175.93-6.17Q174.89-6.62 174.07-6.80L174.07-6.80L174.07-7.12L174.07-7.12Q173.94-7.18 173.82-7.31L173.82-7.31L173.82-7.31Q173.69-7.43 172.65-7.50L172.65-7.50L172.65-7.50Q171.61-7.56 170.73-7.40L170.73-7.40L170.73-7.40Q169.85-7.25 168.34-7.18L168.34-7.18L169.85-7.50L170.16-7.94L169.78-8.00L170.29-8.19L170.41-8.44L167.33-7.75L169.22-8.51L169.41-8.76L169.41-8.76Q165.69-7.18 161.72-6.11L161.72-6.11L161.72-6.11Q161.85-6.11 162.16-6.30L162.16-6.30L162.16-6.30Q162.48-6.49 162.98-6.65L162.98-6.65L162.98-6.65Q163.49-6.80 164.05-7.12L164.05-7.12L164.05-7.12Q164.62-7.43 165.09-7.56L165.09-7.56L165.09-7.56Q165.56-7.69 165.72-7.88L165.72-7.88L165.72-7.88Q165.88-8.06 166.19-8.06L166.19-8.06L165.94-8.13L163.67-7.12L165.63-8.82L165.63-8.82Q167.08-10.77 167.74-11.50L167.74-11.50L167.74-11.50Q168.40-12.22 168.75-12.92L168.75-12.92L168.75-12.92Q169.09-13.61 169.66-15.06L169.66-15.06L166.63-19.03L166.63-19.03Q167.45-19.03 168.27-19.40L168.27-19.40L168.34-19.84L168.34-19.84Q168.46-19.91 168.56-20.03L168.56-20.03L168.56-20.03Q168.65-20.16 168.81-20.10L168.81-20.10L168.81-20.10Q168.97-20.03 169.41-20.03L169.41-20.03ZM147.55-4.98L147.80-4.60L148.87-4.16L148.87-4.41L147.55-4.98ZM207.52-37.80L207.52-37.80L207.52-37.80Q208.84-37.61 209.98-37.04L209.98-37.04L209.98-37.04Q210.74-35.78 211.08-35.34L211.08-35.34L211.08-35.34Q211.43-34.90 211.62-33.99L211.62-33.99L211.62-33.99Q211.81-33.08 211.59-31.97L211.59-31.97L211.59-31.97Q211.37-30.87 210.48-29.23L210.48-29.23L210.48-29.23Q209.60-27.59 203.81-20.73L203.81-20.73L203.81-20.73Q205.57-21.04 207.33-21.92L207.33-21.92L207.33-21.92Q208.03-21.55 208.84-21.48L208.84-21.48L209.03-21.04L209.03-21.04Q207.71-18.77 206.51-16.57L206.51-16.57L206.70-16.25L206.70-16.25Q206.20-15.56 205.76-15.09L205.76-15.09L205.76-15.09Q205.32-14.62 200.34-9.26L200.34-9.26L200.34-9.26Q204.94-11.72 206.36-12.41L206.36-12.41L206.36-12.41Q207.77-13.10 208.09-13.17L208.09-13.17L208.09-13.17Q208.40-13.23 208.78-13.54L208.78-13.54L208.78-13.54Q209.35-13.17 210.10-13.17L210.10-13.17L210.61-12.60L210.61-12.60Q209.60-11.91 208.84-11.15L208.84-11.15L208.84-11.15Q204.81-5.73 200.72-0.44L200.72-0.44L200.91-0.38L200.91-0.38Q203.18-1.95 204.69-2.87L204.69-2.87L204.69-2.87Q206.20-3.78 214.14-11.09L214.14-11.09L214.14-11.09Q213.88-10.58 213.70-10.27L213.70-10.27L213.70-10.27Q213.51-9.95 211.96-8.47L211.96-8.47L211.96-8.47Q210.42-6.99 209.38-5.04L209.38-5.04L209.38-5.04Q208.34-3.09 208.12-2.46L208.12-2.46L208.12-2.46Q207.90-1.83 207.74-1.51L207.74-1.51L207.74-1.51Q207.59-1.20 207.27-0.63L207.27-0.63L207.71-0.82L207.40 0.50L207.27 0.57L206.70 1.32L206.70 1.32Q206.45 1.51 206.20 1.51L206.20 1.51L205.95 1.95L205.95 1.95Q202.61 4.72 198.76 6.68L198.76 6.68L198.26 6.05L198.64 6.05L198.64 6.05Q198.13 5.54 197.44 4.19L197.44 4.19L197.44 4.19Q196.75 2.83 196.06 2.08L196.06 2.08L196.37 1.95L196.37 1.95Q195.99 1.64 196.12 1.20L196.12 1.20L196.69 1.32L196.75 0.82L196.75 0.82Q197.25 0.13 198.13 0.13L198.13 0.13L198.39-0.32L199.21-0.69L204.18-6.74L204.18-6.74Q201.35-5.17 198.70-3.40L198.70-3.40L198.58-3.09L197.06-2.27L196.62-2.58L196.75-2.65L196.75-2.65Q197.19-2.65 197.47-2.65L197.47-2.65L197.47-2.65Q197.76-2.65 198.23-3.12L198.23-3.12L198.23-3.12Q198.70-3.59 199.71-4.54L199.71-4.54L199.71-4.98L199.71-4.98Q198.70-4.22 198.29-3.94L198.29-3.94L198.29-3.94Q197.88-3.65 197.57-3.62L197.57-3.62L197.57-3.62Q197.25-3.59 196.75-3.40L196.75-3.40L196.06-3.97L196.06-3.97Q195.62-6.05 195.49-8.19L195.49-8.19L195.24-8.06L195.11-8.25L194.17-8.44L194.17-8.44Q193.66-9.13 193.41-9.58L193.41-9.58L193.41-9.58Q193.16-10.02 192.75-11.47L192.75-11.47L192.75-11.47Q192.34-12.92 191.90-13.58L191.90-13.58L191.90-13.58Q191.46-14.24 191.36-14.46L191.36-14.46L191.36-14.46Q191.27-14.68 191.14-15.18L191.14-15.18L191.46-15.18L191.46-15.18Q191.33-15.31 191.30-15.62L191.30-15.62L191.30-15.62Q191.27-15.94 191.39-16.25L191.39-16.25L191.39-16.25Q191.52-16.57 191.65-16.73L191.65-16.73L191.65-16.73Q191.77-16.88 192.15-17.26L192.15-17.26L193.79-17.89L194.17-18.33L195.17-18.65L195.17-18.65Q204.44-29.30 205.85-31.25L205.85-31.25L205.85-31.25Q207.27-33.20 207.36-33.86L207.36-33.86L207.36-33.86Q207.46-34.52 207.77-35.59L207.77-35.59L207.77-35.59Q207.46-35.97 207.36-36.10L207.36-36.10L207.36-36.10Q207.27-36.23 207.11-36.67L207.11-36.67L207.11-36.67Q206.96-37.11 207.11-37.30L207.11-37.30L207.11-37.30Q207.27-37.48 207.52-37.80ZM231.90-37.17L231.90-37.17L231.90-37.17Q232.16-37.11 232.31-37.08L232.31-37.08L232.31-37.08Q232.47-37.04 232.97-36.73L232.97-36.73L232.97-36.73Q233.48-36.41 234.36-36.26L234.36-36.26L234.36-36.26Q235.24-36.10 236.03-35.91L236.03-35.91L236.03-35.91Q236.82-35.72 237.35-35.41L237.35-35.41L237.35-35.41Q237.89-35.09 239.02-34.46L239.02-34.46L239.90-33.39L239.90-33.39Q239.78-32.70 239.43-32.41L239.43-32.41L239.43-32.41Q239.09-32.13 238.74-31.53L238.74-31.53L238.74-31.53Q238.39-30.93 237.98-30.37L237.98-30.37L237.98-30.37Q237.57-29.80 236.88-28.10L236.88-28.10L236.44-27.91L236.44-27.91Q235.94-26.52 235.65-25.86L235.65-25.86L235.65-25.86Q235.37-25.20 235.15-23.88L235.15-23.88L235.15-23.88Q234.93-22.55 234.71-22.21L234.71-22.21L234.71-22.21Q234.49-21.86 234.49-21.64L234.49-21.64L234.49-21.64Q234.49-21.42 234.49-20.85L234.49-20.85L234.86-21.29L234.86-21.29Q235.12-19.28 235.02-18.71L235.02-18.71L235.02-18.71Q234.93-18.14 235.31-17.55L235.31-17.55L235.31-17.55Q235.68-16.95 235.75-15.03L235.75-15.03L235.75-15.03Q235.81-13.10 235.65-7.59L235.65-7.59L235.65-7.59Q235.49-2.08 235.71-1.26L235.71-1.26L235.71-1.26Q235.94-0.44 235.94-0.06L235.94-0.06L235.94-0.06Q235.94 0.32 236.00 1.45L236.00 1.45L236.00 1.45Q236.44 1.51 236.72 1.42L236.72 1.42L236.72 1.42Q237.01 1.32 237.60 1.26L237.60 1.26L237.60 1.26Q238.20 1.20 238.80 1.04L238.80 1.04L238.80 1.04Q239.40 0.88 240.00 0.85L240.00 0.85L240.00 0.85Q240.60 0.82 241.10 0.69L241.10 0.69L241.10 0.69Q241.60 0.57 242.61 0.63L242.61 0.63L242.74 0.38L242.74 0.38Q243.37 0.82 243.78 1.07L243.78 1.07L243.78 1.07Q244.19 1.32 245.54 1.70L245.54 1.70L245.54 1.70Q246.90 2.08 247.68 2.46L247.68 2.46L247.68 2.46Q248.47 2.83 249.73 3.34L249.73 3.34L249.73 3.34Q250.74 4.41 251.18 4.79L251.18 4.79L251.18 4.79Q251.62 5.17 251.59 5.58L251.59 5.58L251.59 5.58Q251.56 5.99 251.69 6.21L251.69 6.21L251.69 6.21Q251.81 6.43 251.78 6.52L251.78 6.52L251.78 6.52Q251.75 6.62 251.81 6.74L251.81 6.74L250.87 6.99L250.17 7.88L250.17 7.88Q248.85 8.00 247.46 8.19L247.46 8.19L247.02 8.88L247.02 8.88Q241.86 5.99 240.38 6.21L240.38 6.21L240.38 6.21Q238.90 6.43 236.75 6.43L236.75 6.43L236.75 6.43Q236.38 7.56 236.82 8.57L236.82 8.57L236.00 8.63L235.81 9.77L235.24 9.77L234.99 10.21L234.99 10.21Q234.68 10.52 234.49 10.65L234.49 10.65L234.49 10.65Q234.30 10.77 233.82 10.65L233.82 10.65L233.82 10.65Q233.35 10.52 233.13 10.55L233.13 10.55L233.13 10.55Q232.91 10.58 232.60 10.58L232.60 10.58L232.60 10.58Q231.78 9.77 231.34 8.88L231.34 8.88L230.71 8.51L229.19 6.80L229.19 6.80Q226.67 7.18 225.41 7.34L225.41 7.34L225.41 7.34Q224.15 7.50 223.74 7.50L223.74 7.50L223.74 7.50Q223.34 7.50 223.15 7.56L223.15 7.56L223.15 7.56Q222.96 7.62 222.52 7.59L222.52 7.59L222.52 7.59Q222.07 7.56 219.96 8.00L219.96 8.00L219.96 8.00Q217.85 8.44 215.33 8.79L215.33 8.79L215.33 8.79Q212.81 9.13 210.92 9.07L210.92 9.07L210.92 9.07Q209.03 9.01 207.96 8.82L207.96 8.82L207.96 8.82Q206.89 8.63 205.25 8.51L205.25 8.51L205.25 8.51Q204.69 7.69 204.69 6.80L204.69 6.80L205.32 6.49L205.19 5.99L205.44 5.48L205.76 5.67L205.88 5.23L205.88 5.23Q206.77 5.23 207.59 5.67L207.59 5.67L207.33 6.05L207.33 6.05Q208.47 6.11 209.25 6.21L209.25 6.21L209.25 6.21Q210.04 6.30 212.59 6.02L212.59 6.02L212.59 6.02Q215.15 5.73 218.93 4.82L218.93 4.82L218.93 4.82Q222.70 3.91 224.34 3.69L224.34 3.69L224.34 3.69Q225.98 3.46 227.75 3.09L227.75 3.09L223.27-0.63L223.27-0.63Q225.16 0.63 225.92 1.17L225.92 1.17L225.92 1.17Q226.67 1.70 226.96 1.83L226.96 1.83L226.96 1.83Q227.24 1.95 227.68 2.08L227.68 2.08L226.67 1.32L227.49 1.57L226.67 0.95L226.67 0.95Q226.30 0.82 226.30 0.38L226.30 0.38L228.38 1.32L228.38 1.01L227.37 0.50L227.37 0.13L226.04-0.82L225.54-1.39L225.54-1.39Q226.17-1.07 226.45-0.98L226.45-0.98L226.45-0.98Q226.74-0.88 226.89-0.88L226.89-0.88L226.89-0.88Q227.05-0.88 227.18-0.88L227.18-0.88L225.98-1.83L225.98-1.83Q228.56-0.13 231.65 0.50L231.65 0.50L232.22-6.11L231.78-6.43L231.78-6.43Q231.59-6.74 231.84-7.25L231.84-7.25L231.84-7.25Q231.65-7.12 231.49-7.09L231.49-7.09L231.49-7.09Q231.34-7.06 230.55-7.31L230.55-7.31L230.55-7.31Q229.76-7.56 229.23-7.09L229.23-7.09L229.23-7.09Q228.69-6.62 227.02-5.95L227.02-5.95L227.02-5.95Q225.35-5.29 224.41-4.50L224.41-4.50L224.41-4.50Q223.46-3.72 222.83-3.40L222.83-3.40L222.83-3.40Q222.20-3.09 221.73-2.65L221.73-2.65L221.73-2.65Q221.26-2.21 220.88-2.02L220.88-2.02L220.88-2.02Q220.50-1.83 219.74-1.39L219.74-1.39L218.99 2.58L218.99 2.58Q218.04 2.90 217.35 2.39L217.35 2.39L217.16 2.83L216.66 2.21L215.65 2.46L215.59 2.14L215.21 2.58L215.65 2.71L215.02 2.83L214.70 2.46L214.33 2.46L213.82 3.15L213.82 3.15Q213.57 2.58 213.38 2.33L213.38 2.33L213.38 2.33Q213.19 2.08 213.07 1.70L213.07 1.70L213.07 1.70Q212.94 1.32 212.69 0.95L212.69 0.95L212.69 0.95Q212.44 0.57 212.31 0.22L212.31 0.22L212.31 0.22Q212.18-0.13 211.81-0.63L211.81-0.63L212.00-0.63L212.50-1.01L212.31-1.83L212.56-2.02L213.44-7.69L213.57-6.17L213.57-6.17Q214.01-8.63 214.33-9.89L214.33-9.89L214.33-9.89Q214.64-11.15 214.83-13.92L214.83-13.92L214.83-13.92Q215.02-16.70 214.86-19.25L214.86-19.25L214.86-19.25Q214.70-21.80 214.42-22.30L214.42-22.30L214.42-22.30Q214.14-22.81 213.88-23.44L213.88-23.44L214.20-23.44L214.33-23.81L214.58-23.88L214.64-24.07L214.64-24.07Q214.89-24.07 215.37-24.32L215.37-24.32L215.37-24.32Q215.84-24.57 216.41-24.41L216.41-24.41L216.41-24.41Q216.97-24.25 217.35-23.88L217.35-23.88L217.35-23.88Q217.73-23.50 218.42-22.81L218.42-22.81L218.42-22.81Q218.67-22.05 218.89-21.70L218.89-21.70L218.89-21.70Q219.11-21.36 219.18-20.95L219.18-20.95L219.18-20.95Q219.24-20.54 219.43-19.53L219.43-19.53L219.68-19.72L220.25-16.82L220.25-16.82Q221.32-17.26 221.98-17.51L221.98-17.51L221.98-17.51Q222.64-17.77 224.12-18.27L224.12-18.27L224.12-18.27Q225.60-18.77 226.14-19.06L226.14-19.06L226.14-19.06Q226.67-19.34 226.96-19.34L226.96-19.34L226.96-19.34Q227.24-19.34 227.56-19.53L227.56-19.53L227.56-19.53Q227.87-19.72 228.09-19.72L228.09-19.72L228.09-19.72Q228.31-19.72 228.50-19.88L228.50-19.88L228.50-19.88Q228.69-20.03 228.94-20.03L228.94-20.03L228.94-20.03Q229.19-20.03 229.51-20.29L229.51-20.29L229.51-20.29Q229.82-20.54 230.49-20.35L230.49-20.35L230.49-20.35Q231.15-20.16 232.60-19.78L232.60-19.78L232.60-19.78Q233.41-29.11 233.32-30.02L233.32-30.02L233.32-30.02Q233.23-30.93 233.10-32.07L233.10-32.07L233.10-32.07Q232.41-31.94 232.03-31.88L232.03-31.88L232.03-31.88Q231.65-31.82 230.99-31.56L230.99-31.56L230.99-31.56Q230.33-31.31 230.08-31.06L230.08-31.06L229.95-31.56L229.19-30.68L229.38-31.18L229.13-31.31L228.69-30.30L228.63-30.55L228.12-30.37L228.12-30.62L226.49-29.42L226.23-29.61L226.23-29.61Q226.04-29.17 225.73-28.98L225.73-28.98L225.54-28.79L224.85-27.97L224.72-28.35L224.72-28.35Q224.22-27.59 223.59-27.41L223.59-27.41L220.50-24.32L218.67-23.81L217.48-24.76L217.48-24.76Q217.54-25.20 217.63-25.36L217.63-25.36L217.63-25.36Q217.73-25.52 218.07-26.02L218.07-26.02L218.07-26.02Q218.42-26.52 219.18-27.78L219.18-27.78L219.18-27.78Q220.63-29.17 221.22-29.77L221.22-29.77L221.22-29.77Q221.82-30.37 223.08-31.18L223.08-31.18L223.08-31.18Q224.34-32.00 226.80-33.33L226.80-33.33L226.80-33.33Q229.26-34.65 230.04-35.34L230.04-35.34L230.04-35.34Q230.83-36.04 231.90-37.17ZM232.16-16.38L231.97-16.63L231.97-16.63Q231.27-16.44 230.86-16.38L230.86-16.38L230.86-16.38Q230.45-16.32 229.92-15.88L229.92-15.88L229.92-15.88Q229.38-15.44 228.12-14.62L228.12-14.62L227.93-14.24L227.93-14.24Q227.81-14.24 227.68-14.24L227.68-14.24L227.68-14.24Q227.56-14.24 226.26-13.26L226.26-13.26L226.26-13.26Q224.97-12.29 220.75-8.25L220.75-8.25L220.50-7.12L220.50-7.12Q221.44-7.56 222.26-7.81L222.26-7.81L222.26-7.81Q223.08-8.06 224.22-8.57L224.22-8.57L224.22-8.57Q225.35-9.07 226.42-9.42L226.42-9.42L226.42-9.42Q227.49-9.77 227.87-9.99L227.87-9.99L227.87-9.99Q228.25-10.21 228.82-10.33L228.82-10.33L229.07-10.02L229.07-10.02Q229.45-9.64 229.82-9.54L229.82-9.54L229.82-9.54Q230.20-9.45 230.58-8.95L230.58-8.95L230.58-8.95Q230.96-8.44 231.30-8.38L231.30-8.38L231.30-8.38Q231.65-8.32 232.16-8.19L232.16-8.19L232.16-8.19Q232.60-12.22 232.47-16.32L232.47-16.32L232.16-16.38ZM227.05-15.37L226.99-15.44L220.75-12.73L220.75-12.73Q220.63-12.54 220.59-12.41L220.59-12.41L220.59-12.41Q220.56-12.29 220.59-12.03L220.59-12.03L220.59-12.03Q220.63-11.78 220.56-11.09L220.56-11.09L220.56-11.09Q220.50-10.39 220.50-10.05L220.50-10.05L220.50-10.05Q220.50-9.70 220.63-8.82L220.63-8.82L227.05-15.37ZM197.88-9.77L199.21-11.21L199.21-11.21Q198.95-11.15 198.80-11.03L198.80-11.03L198.80-11.03Q198.64-10.90 198.20-10.52L198.20-10.52L198.20-10.52Q197.76-10.14 196.75-9.13L196.75-9.13L196.75-9.13Q197.19-9.64 197.88-9.77L197.88-9.77ZM206.01-9.20L205.76-9.20L205.76-9.20Q205.06-8.57 204.50-8.06L204.50-8.06L204.81-7.69L206.01-9.20ZM219.74-2.14L222.64-4.60L222.64-4.60Q222.01-4.41 221.26-4.47L221.26-4.47L220.75-3.78L220.12-4.09L219.74-2.14ZM227.49 1.01L227.68 1.01L229.63 2.08L230.08 2.46L230.08 2.46Q228.82 2.21 227.87 1.51L227.87 1.51L227.49 1.01ZM205.32 1.32L205.25 1.32L203.93 2.39L203.87 2.58L205.32 1.32Z"></path></g><g class="font1 slogan" transform="translate(134, 87)" fill="#a5cd39"> <path transform="translate(-1.09375, 16.796875)" d="M1.09-1.80L1.09-1.80L1.09-4.38L1.09-4.38Q3.98-0.23 7.89-0.31L7.89-0.31L7.89-0.31Q11.64-0.39 11.72-3.05L11.72-3.05L11.72-3.05Q11.64-5.39 8.13-5.94L8.13-5.94L8.13-5.94Q1.09-6.95 1.56-11.09L1.56-11.09L1.56-11.09Q1.80-15.55 7.81-15.70L7.81-15.70L7.81-15.70Q13.59-15.63 14.61-10.55L14.61-10.55L11.48-10.55L11.48-10.55Q10.63-13.52 7.89-13.59L7.89-13.59L7.89-13.59Q4.84-13.59 4.84-11.17L4.84-11.17L4.84-11.17Q4.69-9.06 8.28-8.52L8.28-8.52L8.28-8.52Q15.08-7.34 15.08-3.28L15.08-3.28L15.08-3.28Q15 1.64 8.36 1.64L8.36 1.64L8.36 1.64Q3.52 1.64 1.09-1.80ZM23.28-0.31L23.28-0.31L23.28-0.31Q26.41-0.31 26.41-4.53L26.41-4.53L26.41-4.53Q26.33-8.75 23.28-8.83L23.28-8.83L23.28-8.83Q20.31-8.75 20.23-4.53L20.23-4.53L20.23-4.53Q20.31-0.47 23.28-0.31ZM23.28 1.64L23.28 1.64L23.28 1.64Q17.27 1.33 16.95-4.53L16.95-4.53L16.95-4.53Q17.19-10.70 23.36-10.94L23.36-10.94L23.36-10.94Q29.45-10.70 29.69-4.61L29.69-4.61L29.69-4.61Q29.53 1.41 23.28 1.64ZM36.17-10.70L38.28-10.70L38.28-8.67L36.17-8.67L36.17 1.33L32.97 1.33L32.97-8.67L31.56-8.67L31.56-10.70L32.97-10.70L32.97-12.34L32.97-12.34Q32.97-16.64 37.11-16.64L37.11-16.64L40.16-16.64L40.16-14.53L38.20-14.53L38.20-14.53Q36.17-14.53 36.17-12.42L36.17-12.42L36.17-10.70ZM42.19-8.59L40.08-8.59L40.08-10.70L42.19-10.70L42.19-15.55L45.39-15.55L45.39-10.70L48.05-10.70L48.05-8.59L45.39-8.59L45.39-2.19L45.39-2.19Q45.31-0.31 46.80-0.47L46.80-0.47L46.80-0.47Q47.50-0.47 48.28-1.02L48.28-1.02L48.28 0.78L48.28 0.78Q47.27 1.64 45.70 1.64L45.70 1.64L45.70 1.64Q42.11 1.72 42.19-1.88L42.19-1.88L42.19-8.59ZM63.98-10.63L67.03-10.63L63.05 1.33L60 1.33L58.05-6.33L56.02 1.33L52.97 1.33L48.91-10.63L51.95-10.63L54.53-2.58L56.56-10.63L59.38-10.63L61.48-2.58L63.98-10.63ZM73.59-0.31L76.88-0.31L76.88-4.45L73.91-4.45L73.91-4.45Q70.47-4.45 70.55-2.19L70.55-2.19L70.55-2.19Q70.47-0.31 73.59-0.31L73.59-0.31ZM74.06-6.48L74.06-6.48L76.88-6.48L76.88-6.48Q76.95-9.06 74.06-8.98L74.06-8.98L74.06-8.98Q71.33-9.06 70.70-6.88L70.70-6.88L68.20-6.88L68.20-6.88Q69.30-11.02 74.06-10.94L74.06-10.94L74.06-10.94Q79.06-10.94 79.06-6.64L79.06-6.64L79.06 1.64L73.52 1.64L73.52 1.64Q68.20 1.64 68.20-2.03L68.20-2.03L68.20-2.03Q68.28-6.48 74.06-6.48ZM84.84 1.56L81.64 1.56L81.64-6.72L81.64-6.72Q81.72-10.94 85.94-10.86L85.94-10.86L90-10.86L90-8.75L87.03-8.75L87.03-8.75Q84.84-8.83 84.84-6.72L84.84-6.72L84.84 1.56ZM104.14-3.67L104.14-3.67L94.69-3.67L94.69-3.67Q95.16-0.39 98.91-0.31L98.91-0.31L98.91-0.31Q101.72-0.31 103.98-2.66L103.98-2.66L103.98-0.47L103.98-0.47Q102.27 1.64 98.20 1.64L98.20 1.64L98.20 1.64Q91.72 1.41 91.41-4.38L91.41-4.38L91.41-4.38Q91.56-10.70 97.73-10.94L97.73-10.94L97.73-10.94Q104.22-11.02 104.14-3.67ZM94.69-5.70L94.69-5.70L101.02-5.70L101.02-5.70Q100.86-8.75 97.81-8.83L97.81-8.83L97.81-8.83Q95.16-8.75 94.69-5.70ZM118.36-13.44L112.73-13.44L112.73-15.47L127.27-15.47L127.27-13.44L121.56-13.44L121.56 1.33L118.36 1.33L118.36-13.44ZM141.88-3.67L141.88-3.67L132.42-3.67L132.42-3.67Q132.89-0.39 136.64-0.31L136.64-0.31L136.64-0.31Q139.45-0.31 141.72-2.66L141.72-2.66L141.72-0.47L141.72-0.47Q140 1.64 135.94 1.64L135.94 1.64L135.94 1.64Q129.45 1.41 129.14-4.38L129.14-4.38L129.14-4.38Q129.30-10.70 135.47-10.94L135.47-10.94L135.47-10.94Q141.95-11.02 141.88-3.67ZM132.42-5.70L132.42-5.70L138.75-5.70L138.75-5.70Q138.59-8.75 135.55-8.83L135.55-8.83L135.55-8.83Q132.89-8.75 132.42-5.70ZM149.30-0.31L152.58-0.31L152.58-4.45L149.61-4.45L149.61-4.45Q146.17-4.45 146.25-2.19L146.25-2.19L146.25-2.19Q146.17-0.31 149.30-0.31L149.30-0.31ZM149.77-6.48L149.77-6.48L152.58-6.48L152.58-6.48Q152.66-9.06 149.77-8.98L149.77-8.98L149.77-8.98Q147.03-9.06 146.41-6.88L146.41-6.88L143.91-6.88L143.91-6.88Q145-11.02 149.77-10.94L149.77-10.94L149.77-10.94Q154.77-10.94 154.77-6.64L154.77-6.64L154.77 1.64L149.22 1.64L149.22 1.64Q143.91 1.64 143.91-2.03L143.91-2.03L143.91-2.03Q143.98-6.48 149.77-6.48ZM160.70 1.33L157.50 1.33L157.50-10.86L171.56-10.86L171.56-10.86Q176.41-10.94 176.33-6.72L176.33-6.72L176.33 1.33L173.13 1.33L173.13-6.41L173.13-6.41Q173.13-8.83 170.55-8.83L170.55-8.83L168.52-8.83L168.52 1.33L165.31 1.33L165.31-6.56L165.31-6.56Q165.31-8.83 162.97-8.83L162.97-8.83L160.70-8.83L160.70 1.33ZM188.05 4.84L185.31 4.84L185.31-16.80L188.05-16.80L188.05 4.84ZM208.13-0.55L208.13 1.33L196.48 1.33L196.48-0.55L196.48-0.55Q198.05-3.20 201.64-6.02L201.64-6.02L201.64-6.02Q205.63-8.91 205.31-11.25L205.31-11.25L205.31-11.25Q205.31-13.75 202.66-13.75L202.66-13.75L202.66-13.75Q200-13.91 199.22-10.78L199.22-10.78L196.41-10.78L196.41-10.78Q197.66-15.78 202.58-15.78L202.58-15.78L202.58-15.78Q208.20-15.55 208.52-11.25L208.52-11.25L208.52-11.25Q208.75-7.97 204.06-4.69L204.06-4.69L204.06-4.69Q200.86-2.42 199.69-0.55L199.69-0.55L208.13-0.55ZM216.72-0.31L216.72-0.31L216.72-0.31Q219.69-0.23 219.69-6.95L219.69-6.95L219.69-6.95Q219.77-13.98 216.72-13.75L216.72-13.75L216.72-13.75Q213.67-13.83 213.67-6.95L213.67-6.95L213.67-6.95Q213.67-0.23 216.72-0.31ZM216.72 1.64L216.72 1.64L216.72 1.64Q210.39 1.56 210.31-7.03L210.31-7.03L210.31-7.03Q210.47-15.63 216.72-15.86L216.72-15.86L216.72-15.86Q222.89-15.78 222.97-7.03L222.97-7.03L222.97-7.03Q223.05 1.72 216.72 1.64ZM233.05 1.33L229.84 1.33L229.84-11.02L229.84-11.02Q227.97-9.45 224.53-8.75L224.53-8.75L224.53-10.55L224.53-10.55Q228.44-12.34 229.84-15.55L229.84-15.55L233.05-15.55L233.05 1.33ZM247.50-0.55L247.50 1.33L235.86 1.33L235.86-0.55L235.86-0.55Q237.42-3.20 241.02-6.02L241.02-6.02L241.02-6.02Q245-8.91 244.69-11.25L244.69-11.25L244.69-11.25Q244.69-13.75 242.03-13.75L242.03-13.75L242.03-13.75Q239.38-13.91 238.59-10.78L238.59-10.78L235.78-10.78L235.78-10.78Q237.03-15.78 241.95-15.78L241.95-15.78L241.95-15.78Q247.58-15.55 247.89-11.25L247.89-11.25L247.89-11.25Q248.13-7.97 243.44-4.69L243.44-4.69L243.44-4.69Q240.23-2.42 239.06-0.55L239.06-0.55L247.50-0.55Z"></path></g></svg>